<?xml version="1.0" encoding="UTF-8" standalone="no"?>
<!DOCTYPE svg PUBLIC "-//W3C//DTD SVG 1.1//EN" "http://www.w3.org/Graphics/SVG/1.1/DTD/svg11.dtd">
<svg width="100%" height="100%" viewBox="0 0 1024 1024" version="1.1" xmlns="http://www.w3.org/2000/svg" xmlns:xlink="http://www.w3.org/1999/xlink" xml:space="preserve" xmlns:serif="http://www.serif.com/" style="fill-rule:evenodd;clip-rule:evenodd;stroke-linecap:round;stroke-linejoin:round;stroke-miterlimit:1.5;">
    <g transform="matrix(1.024,0,0,1.024,-10.24,-10.24)">
        <rect x="10" y="10" width="1000" height="1000" style="fill:white;stroke:black;stroke-width:40.69px;"/>
    </g>
    <g transform="matrix(0.133838,0,0,0.426396,139.735,485.736)">
        <g transform="matrix(5.5,0,0,2.40244,-2060,-614.634)">
            <path d="M500,260L440,610L480,620L560,290L500,260" style="fill:rgb(131,64,12);stroke:black;stroke-width:1.12px;"/>
        </g>
        <g transform="matrix(5.5,0,0,2.40244,-2060,-614.634)">
            <path d="M439.151,598.453C439.151,593.788 446.252,590 455,590C463.748,590 470.849,593.788 470.849,598.453C475.223,594.413 484.924,593.026 492.5,595.359C500.076,597.692 502.675,602.866 498.301,606.906C505.877,604.573 515.578,605.96 519.952,610C524.326,614.04 521.726,619.214 514.151,621.547C522.898,621.547 530,625.335 530,630C530,634.665 522.898,638.453 514.151,638.453C521.726,640.786 524.326,645.96 519.952,650C515.578,654.04 505.877,655.427 498.301,653.094C502.675,657.134 500.076,662.308 492.5,664.641C484.924,666.974 475.223,665.587 470.849,661.547C470.849,666.212 463.748,670 455,670C446.252,670 439.151,666.212 439.151,661.547C434.777,665.587 425.076,666.974 417.5,664.641C409.924,662.308 407.325,657.134 411.699,653.094C404.123,655.427 394.422,654.04 390.048,650C385.674,645.96 388.274,640.786 395.849,638.453C387.102,638.453 380,634.665 380,630C380,625.335 387.102,621.547 395.849,621.547C388.274,619.214 385.674,614.04 390.048,610C394.422,605.96 404.123,604.573 411.699,606.906C407.325,602.866 409.924,597.692 417.5,595.359C425.076,593.026 434.777,594.413 439.151,598.453Z" style="fill:rgb(176,176,176);"/>
        </g>
    </g>
    <g transform="matrix(0.133838,0,0,0.426396,413.485,355.736)">
        <g transform="matrix(5.5,0,0,2.40244,-2060,-614.634)">
            <path d="M500,260L440,610L480,620L560,290L500,260" style="fill:rgb(131,64,12);stroke:black;stroke-width:1.12px;"/>
        </g>
        <g transform="matrix(5.5,0,0,2.40244,-2060,-614.634)">
            <path d="M439.151,598.453C439.151,593.788 446.252,590 455,590C463.748,590 470.849,593.788 470.849,598.453C475.223,594.413 484.924,593.026 492.5,595.359C500.076,597.692 502.675,602.866 498.301,606.906C505.877,604.573 515.578,605.96 519.952,610C524.326,614.04 521.726,619.214 514.151,621.547C522.898,621.547 530,625.335 530,630C530,634.665 522.898,638.453 514.151,638.453C521.726,640.786 524.326,645.96 519.952,650C515.578,654.04 505.877,655.427 498.301,653.094C502.675,657.134 500.076,662.308 492.5,664.641C484.924,666.974 475.223,665.587 470.849,661.547C470.849,666.212 463.748,670 455,670C446.252,670 439.151,666.212 439.151,661.547C434.777,665.587 425.076,666.974 417.5,664.641C409.924,662.308 407.325,657.134 411.699,653.094C404.123,655.427 394.422,654.04 390.048,650C385.674,645.96 388.274,640.786 395.849,638.453C387.102,638.453 380,634.665 380,630C380,625.335 387.102,621.547 395.849,621.547C388.274,619.214 385.674,614.04 390.048,610C394.422,605.96 404.123,604.573 411.699,606.906C407.325,602.866 409.924,597.692 417.5,595.359C425.076,593.026 434.777,594.413 439.151,598.453Z" style="fill:rgb(176,176,176);"/>
        </g>
    </g>
    <g transform="matrix(0.133838,0,0,0.426396,265.985,435.736)">
        <g transform="matrix(5.5,0,0,2.40244,-2060,-614.634)">
            <path d="M500,260L440,610L480,620L560,290L500,260" style="fill:rgb(131,64,12);stroke:black;stroke-width:1.12px;"/>
        </g>
        <g transform="matrix(5.5,0,0,2.40244,-2060,-614.634)">
            <path d="M439.151,598.453C439.151,593.788 446.252,590 455,590C463.748,590 470.849,593.788 470.849,598.453C475.223,594.413 484.924,593.026 492.5,595.359C500.076,597.692 502.675,602.866 498.301,606.906C505.877,604.573 515.578,605.96 519.952,610C524.326,614.04 521.726,619.214 514.151,621.547C522.898,621.547 530,625.335 530,630C530,634.665 522.898,638.453 514.151,638.453C521.726,640.786 524.326,645.96 519.952,650C515.578,654.04 505.877,655.427 498.301,653.094C502.675,657.134 500.076,662.308 492.5,664.641C484.924,666.974 475.223,665.587 470.849,661.547C470.849,666.212 463.748,670 455,670C446.252,670 439.151,666.212 439.151,661.547C434.777,665.587 425.076,666.974 417.5,664.641C409.924,662.308 407.325,657.134 411.699,653.094C404.123,655.427 394.422,654.04 390.048,650C385.674,645.96 388.274,640.786 395.849,638.453C387.102,638.453 380,634.665 380,630C380,625.335 387.102,621.547 395.849,621.547C388.274,619.214 385.674,614.04 390.048,610C394.422,605.96 404.123,604.573 411.699,606.906C407.325,602.866 409.924,597.692 417.5,595.359C425.076,593.026 434.777,594.413 439.151,598.453Z" style="fill:rgb(176,176,176);"/>
        </g>
    </g>
    <g transform="matrix(0.133838,0,0,0.426396,603.485,245.736)">
        <g transform="matrix(5.5,0,0,2.40244,-2060,-614.634)">
            <path d="M500,260L440,610L480,620L560,290L500,260" style="fill:rgb(131,64,12);stroke:black;stroke-width:1.12px;"/>
        </g>
        <g transform="matrix(5.5,0,0,2.40244,-2060,-614.634)">
            <path d="M439.151,598.453C439.151,593.788 446.252,590 455,590C463.748,590 470.849,593.788 470.849,598.453C475.223,594.413 484.924,593.026 492.5,595.359C500.076,597.692 502.675,602.866 498.301,606.906C505.877,604.573 515.578,605.96 519.952,610C524.326,614.04 521.726,619.214 514.151,621.547C522.898,621.547 530,625.335 530,630C530,634.665 522.898,638.453 514.151,638.453C521.726,640.786 524.326,645.96 519.952,650C515.578,654.04 505.877,655.427 498.301,653.094C502.675,657.134 500.076,662.308 492.5,664.641C484.924,666.974 475.223,665.587 470.849,661.547C470.849,666.212 463.748,670 455,670C446.252,670 439.151,666.212 439.151,661.547C434.777,665.587 425.076,666.974 417.5,664.641C409.924,662.308 407.325,657.134 411.699,653.094C404.123,655.427 394.422,654.04 390.048,650C385.674,645.96 388.274,640.786 395.849,638.453C387.102,638.453 380,634.665 380,630C380,625.335 387.102,621.547 395.849,621.547C388.274,619.214 385.674,614.04 390.048,610C394.422,605.96 404.123,604.573 411.699,606.906C407.325,602.866 409.924,597.692 417.5,595.359C425.076,593.026 434.777,594.413 439.151,598.453Z" style="fill:rgb(176,176,176);"/>
        </g>
    </g>
    <g transform="matrix(0.133838,0,0,0.426396,529.735,95.736)">
        <g transform="matrix(5.5,0,0,2.40244,-2060,-614.634)">
            <path d="M500,260L440,610L480,620L560,290L500,260" style="fill:rgb(131,64,12);stroke:black;stroke-width:1.12px;"/>
        </g>
        <g transform="matrix(5.5,0,0,2.40244,-2060,-614.634)">
            <path d="M439.151,598.453C439.151,593.788 446.252,590 455,590C463.748,590 470.849,593.788 470.849,598.453C475.223,594.413 484.924,593.026 492.5,595.359C500.076,597.692 502.675,602.866 498.301,606.906C505.877,604.573 515.578,605.96 519.952,610C524.326,614.04 521.726,619.214 514.151,621.547C522.898,621.547 530,625.335 530,630C530,634.665 522.898,638.453 514.151,638.453C521.726,640.786 524.326,645.96 519.952,650C515.578,654.04 505.877,655.427 498.301,653.094C502.675,657.134 500.076,662.308 492.5,664.641C484.924,666.974 475.223,665.587 470.849,661.547C470.849,666.212 463.748,670 455,670C446.252,670 439.151,666.212 439.151,661.547C434.777,665.587 425.076,666.974 417.5,664.641C409.924,662.308 407.325,657.134 411.699,653.094C404.123,655.427 394.422,654.04 390.048,650C385.674,645.96 388.274,640.786 395.849,638.453C387.102,638.453 380,634.665 380,630C380,625.335 387.102,621.547 395.849,621.547C388.274,619.214 385.674,614.04 390.048,610C394.422,605.96 404.123,604.573 411.699,606.906C407.325,602.866 409.924,597.692 417.5,595.359C425.076,593.026 434.777,594.413 439.151,598.453Z" style="fill:rgb(176,176,176);"/>
        </g>
    </g>
</svg>
